<?xml version="1.0" encoding="UTF-8"?><svg id="a" xmlns="http://www.w3.org/2000/svg" width="282" height="104" xmlns:xlink="http://www.w3.org/1999/xlink" viewBox="0 0 282 104"><defs><linearGradient id="b" x1="53.33" y1="25.53" x2="26.84" y2="82.34" gradientTransform="translate(-25.59 -1.07) rotate(.25)" gradientUnits="userSpaceOnUse"><stop offset=".14" stop-color="#1e589f"/><stop offset=".68" stop-color="#097c87"/><stop offset="1" stop-color="#008d7d"/></linearGradient><linearGradient id="c" x1="98.59" y1="1148.58" x2="124.85" y2="1091.62" gradientTransform="translate(178.14 1171.55) rotate(-179.75)" xlink:href="#b"/><linearGradient id="d" x1="89.52" y1="7.87" x2="47.64" y2="97.68" xlink:href="#b"/></defs><g><path d="M4.5,82.86l15.49,.07c1.22,0,2.21-.98,2.21-2.19l.25-57.08c0-1.73-1.9-2.8-3.37-1.87L3.55,31.54c-.64,.4-1.03,1.1-1.03,1.85l-.2,47.26c0,1.22,.98,2.21,2.19,2.21Z" fill="url(#b)"/><path d="M81,21.14l-15.49-.07c-1.22,0-2.21,.98-2.21,2.19l-.25,57.08c0,1.73,1.9,2.8,3.37,1.87l15.54-9.75c.64-.4,1.03-1.1,1.03-1.85l.2-47.26c0-1.22-.98-2.21-2.19-2.21Z" fill="url(#c)"/><path d="M32.6,13.32c-.64,.4-1.03,1.11-1.03,1.86V100.11c0,1.73,1.91,2.78,3.37,1.86l17.96-11.27c.64-.4,1.03-1.11,1.03-1.86V3.89c0-1.73-1.9-2.78-3.37-1.86l-17.96,11.29Z" fill="url(#d)"/></g><g><g><path d="M109.85,26.72h24.24v6.13h-17.49v11.53h16.09v5.79h-16.09v12.26h17.49v6.13h-24.24V26.72Z" fill="#fff"/><path d="M146.29,63c3.99,0,6.52-2.59,6.52-7.65V26.72h6.75v29.58c0,7.54-4.56,12.94-12.32,12.94-2.98,0-5.96-1.01-7.99-2.76v-6.97c1.69,1.91,3.99,3.49,7.03,3.49Z" fill="#fff"/><path d="M198.82,56.98c0,6.24-4.78,11.59-14.51,11.59h-14.57V26.72h13.84c9.17,0,13.95,4.78,13.95,10.97,0,4.89-2.7,7.87-6.24,9.28,4.95,1.57,7.54,5.17,7.54,10.01Zm-22.39-12.32h7.03c4.89,0,7.59-2.64,7.59-6.19s-2.7-5.91-7.31-5.91h-7.31v12.09Zm15.75,11.53c0-3.99-3.32-6.36-7.99-6.36h-7.76v12.82h7.48c5.4,0,8.27-2.7,8.27-6.47Z" fill="#fff"/><path d="M225.42,69.41c-11.19,0-21.09-8.49-21.09-21.82s9.9-21.77,21.09-21.77c4.78,0,8.44,1.29,11.25,2.81v6.92c-3.32-2.14-6.41-3.43-10.74-3.43-7.54,0-14.74,5.85-14.74,15.52s7.2,15.47,14.74,15.47c4.33,0,7.42-1.35,10.74-3.49v6.97c-2.81,1.52-6.47,2.81-11.25,2.81Z" fill="#fff"/><path d="M272.54,68.57l-4.44-11.75h-17.04l-4.44,11.75h-7.03l16.14-41.85h7.7l16.26,41.85h-7.14Zm-19.46-17.55h12.99l-6.52-17.1-6.47,17.1Z" fill="#fff"/></g><g><path d="M171.88,84.39c.64-1.16,1.96-1.84,3.28-1.84,2.28,0,4.35,1.98,4.35,5.1s-2.14,5.1-4.43,5.1c-1.39,0-2.64-.71-3.34-1.91l-.23,1.68h-1.75v-14.29h2.11v6.16Zm-.04,3.27c0,1.87,1.2,3.18,2.77,3.18s2.78-1.3,2.78-3.16-1.21-3.19-2.8-3.19-2.75,1.32-2.75,3.18Z" fill="#fff"/><path d="M184.43,96.27h-2.12l1.68-4.07-3.66-9.42h2.28l2.44,7.03h.04l2.46-7.03h2.18l-5.3,13.49Z" fill="#fff"/><path d="M203.76,92.53l-5.66-6.44v6.44h-2.14v-13.28h2.14v6.39l5.64-6.39h2.57l-5.87,6.57,5.98,6.71h-2.66Z" fill="#fff"/><path d="M215.55,88.3h-6.99c.28,1.71,1.59,2.71,3.3,2.71,1.11,0,2.2-.39,3.18-1.16v1.89c-1,.68-2.14,1.02-3.39,1.02-3.19,0-5.12-2.07-5.12-5.07s2.18-5.14,4.78-5.14c2.36,0,4.3,1.69,4.3,4.93,0,.3-.02,.57-.05,.82Zm-1.94-1.41c-.05-1.73-1.11-2.59-2.32-2.59-1.34,0-2.5,.98-2.75,2.59h5.07Z" fill="#fff"/><path d="M220.5,96.27h-2.12l1.68-4.07-3.66-9.42h2.28l2.44,7.03h.04l2.46-7.03h2.18l-5.3,13.49Z" fill="#fff"/><path d="M228.07,84.57h-1.37v-1.78h1.37v-1.28c0-1.87,1.34-3.39,3.52-3.39,.61,0,1.18,.11,1.73,.29v1.86c-.36-.13-.91-.25-1.41-.25-1.14,0-1.75,.54-1.75,1.73v1.05h2.71v1.78h-2.7v7.96h-2.11v-7.96Z" fill="#fff"/><path d="M233.69,87.67c0-3.1,2.14-5.12,4.37-5.12,1.43,0,2.68,.71,3.37,1.91l.23-1.68h1.75v9.74h-1.75l-.23-1.68c-.7,1.2-1.95,1.91-3.37,1.91-2.23,0-4.37-2.02-4.37-5.09Zm7.67-.02c0-1.86-1.21-3.18-2.77-3.18s-2.8,1.32-2.8,3.18,1.21,3.18,2.8,3.18,2.77-1.3,2.77-3.18Z" fill="#fff"/><path d="M250.81,90.83c.78,0,1.71-.16,2.53-.77v2.02c-.75,.43-1.71,.68-2.77,.68-2.84,0-5-2.18-5-5.12s2.16-5.09,5-5.09c1,0,1.96,.2,2.77,.7v2.03c-.82-.57-1.61-.8-2.55-.8-1.62,0-3.09,1.21-3.09,3.18s1.46,3.18,3.11,3.18Z" fill="#fff"/><path d="M258.16,82.78h2.7v1.78h-2.7v4.32c0,1.39,.86,1.96,2.03,1.96,.27,0,.55-.04,.87-.09v1.8c-.27,.05-.71,.13-1.3,.13-2.3,0-3.68-1.37-3.68-3.69v-4.43h-1.43v-1.78h1.46v-2.27h2.03v2.27Z" fill="#fff"/><path d="M262.25,87.66c0-2.96,2.16-5.1,4.96-5.1s4.94,2.14,4.94,5.1-2.12,5.1-4.94,5.1-4.96-2.14-4.96-5.1Zm7.78,0c0-2.02-1.37-3.18-2.82-3.18s-2.84,1.16-2.84,3.18,1.39,3.18,2.84,3.18,2.82-1.16,2.82-3.18Z" fill="#fff"/><path d="M274.31,82.78h1.68l.21,1.52h.04c.66-1.23,1.86-1.62,2.73-1.62,.27,0,.48,.02,.68,.05v2c-.23-.05-.48-.07-.73-.07-1.25,0-2.5,.75-2.5,2.62v5.25h-2.11v-9.74Z" fill="#fff"/></g></g></svg>