<?xml version="1.0" encoding="UTF-8"?><svg id="a" xmlns="http://www.w3.org/2000/svg" width="578.17" height="128" xmlns:xlink="http://www.w3.org/1999/xlink" viewBox="0 0 578.17 128"><defs><linearGradient id="b" x1="60.28" y1="28.72" x2="26.94" y2="100.23" gradientTransform="translate(-27.29 .65) rotate(.25)" gradientUnits="userSpaceOnUse"><stop offset=".14" stop-color="#222366"/><stop offset=".53" stop-color="#4533a3"/><stop offset=".84" stop-color="#5e3fce"/><stop offset="1" stop-color="#6844df"/></linearGradient><linearGradient id="c" x1="-720.22" y1="362.47" x2="-687.16" y2="290.76" gradientTransform="translate(-617.31 386.28) rotate(-179.75)" xlink:href="#b"/><linearGradient id="d" x1="105.83" y1="6.49" x2="53.12" y2="119.53" xlink:href="#b"/></defs><g><path d="M141.99,34.35l-4.86-5.78v5.78h-2.26v-12.03h2.26v5.72l4.83-5.72h2.68l-5.07,5.94,5.17,6.09h-2.75Z" fill="#fff"/><path d="M153.1,30.56h-6.23c.31,1.42,1.45,2.21,2.92,2.21,.98,0,1.95-.36,2.83-.97v1.91c-.9,.57-1.95,.87-3.08,.87-3,0-4.8-1.92-4.8-4.63s1.99-4.68,4.41-4.68c2.21,0,4.02,1.55,4.02,4.49,0,.31-.03,.56-.06,.81Zm-2.07-1.4c-.03-1.37-.87-2.1-1.91-2.1-1.1,0-2.03,.81-2.28,2.1h4.18Z" fill="#fff"/><path d="M157.8,37.74h-2.25l1.52-3.66-3.34-8.61h2.41l2.07,6.14h.05l2.08-6.14h2.29l-4.83,12.27Z" fill="#fff"/><path d="M164.59,27.33h-1.23v-1.86h1.24v-1.03c0-1.7,1.21-3.16,3.33-3.16,.58,0,1.1,.1,1.63,.26v1.92c-.31-.11-.79-.21-1.26-.21-.98,0-1.5,.42-1.5,1.41v.82h2.41v1.86h-2.39v7.03h-2.23v-7.03Z" fill="#fff"/><path d="M169.87,29.93c0-2.83,1.95-4.67,3.97-4.67,1.31,0,2.39,.65,3,1.66l.23-1.45h1.87v8.88h-1.87l-.23-1.45c-.61,1.02-1.7,1.68-3,1.68-2.02,0-3.97-1.86-3.97-4.65Zm6.88-.02c0-1.55-.98-2.63-2.29-2.63s-2.34,1.1-2.34,2.63,1,2.63,2.34,2.63,2.29-1.08,2.29-2.63Z" fill="#fff"/><path d="M185.66,32.55c.71,0,1.53-.15,2.28-.68v2.08c-.71,.39-1.61,.63-2.57,.63-2.62,0-4.6-1.97-4.6-4.68s2-4.64,4.6-4.64c.9,0,1.82,.18,2.57,.61v2.1c-.74-.5-1.45-.69-2.29-.69-1.41,0-2.63,1-2.63,2.63s1.23,2.63,2.65,2.63Z" fill="#fff"/><path d="M192.54,25.47h2.42v1.86h-2.42v3.59c0,1.2,.76,1.66,1.79,1.66,.24,0,.52-.03,.79-.08v1.91c-.29,.06-.69,.13-1.28,.13-2.21,0-3.47-1.32-3.47-3.5v-3.7h-1.29v-1.86h1.31v-2.07h2.15v2.07Z" fill="#fff"/><path d="M196.17,29.91c0-2.73,2-4.65,4.59-4.65s4.57,1.92,4.57,4.65-1.97,4.67-4.57,4.67-4.59-1.94-4.59-4.67Zm6.91,0c0-1.68-1.13-2.63-2.32-2.63s-2.34,.95-2.34,2.63,1.15,2.63,2.34,2.63,2.32-.97,2.32-2.63Z" fill="#fff"/><path d="M207.15,25.47h1.78l.23,1.36h.03c.6-1.1,1.66-1.45,2.45-1.45,.24,0,.45,.02,.65,.06v2.08c-.24-.05-.47-.07-.71-.07-1.11,0-2.2,.63-2.2,2.33v4.57h-2.23v-8.88Z" fill="#fff"/></g><g><path d="M134.87,48.71h23.71v6h-17.11v11.28h15.73v5.67h-15.73v11.99h17.11v6h-23.71V48.71Z" fill="#fff"/><path d="M170.52,84.19c3.91,0,6.38-2.53,6.38-7.48v-28h6.6v28.93c0,7.37-4.46,12.65-12.05,12.65-2.92,0-5.83-.99-7.81-2.7v-6.82c1.65,1.87,3.91,3.41,6.88,3.41Z" fill="#fff"/><path d="M221.89,78.31c0,6.11-4.67,11.33-14.19,11.33h-14.25V48.71h13.53c8.97,0,13.64,4.68,13.64,10.73,0,4.79-2.64,7.7-6.11,9.08,4.84,1.54,7.37,5.06,7.37,9.79Zm-21.89-12.05h6.88c4.79,0,7.43-2.59,7.43-6.05s-2.64-5.78-7.15-5.78h-7.15v11.83Zm15.4,11.28c0-3.91-3.25-6.22-7.81-6.22h-7.59v12.54h7.32c5.28,0,8.09-2.64,8.09-6.33Z" fill="#fff"/><path d="M247.91,90.46c-10.95,0-20.63-8.31-20.63-21.34s9.68-21.29,20.63-21.29c4.68,0,8.25,1.26,11,2.75v6.77c-3.25-2.09-6.27-3.36-10.51-3.36-7.37,0-14.41,5.72-14.41,15.18s7.04,15.13,14.41,15.13c4.24,0,7.26-1.32,10.51-3.41v6.82c-2.75,1.48-6.33,2.75-11,2.75Z" fill="#fff"/><path d="M294.01,89.64l-4.35-11.5h-16.67l-4.35,11.5h-6.88l15.79-40.93h7.54l15.9,40.93h-6.99Zm-19.03-17.16h12.71l-6.38-16.72-6.33,16.72Z" fill="#fff"/><path d="M320.14,48.77h21.29v3.58h-17.55v14.63h16.34v3.52h-16.34v15.57h17.55v3.58h-21.29V48.77Z" fill="#fff"/><path d="M373.55,70.17v19.47h-3.74v-17.88c0-5.78-2.64-8.53-7.59-8.53-4.57,0-8.14,3.41-8.14,8.2v18.21h-3.74v-29.48h2.86l.5,4.57h.11c1.65-2.75,4.9-5.17,9.13-5.17,6.38,0,10.62,4.18,10.62,10.62Z" fill="#fff"/><path d="M387.58,60.16h8.64v3.36h-8.64v16.06c0,4.95,2.81,6.99,6.71,6.99,.83,0,1.71-.11,2.64-.28v3.36c-.33,.05-1.6,.28-3.14,.28-5.83,0-9.96-3.52-9.96-10.18v-16.23h-4.46v-3.36h4.57v-6.93h3.63v6.93Z" fill="#fff"/><path d="M427.24,76.27h-22.5c.61,6.44,4.79,10.45,10.84,10.45,3.41,0,6.99-1.27,10.18-4.18v4.18c-3.03,2.37-6.49,3.52-10.34,3.52-8.75,0-14.41-6.05-14.41-15.24s6.6-15.46,13.97-15.46c6.82,0,12.38,5.06,12.38,14.74,0,.77-.05,1.38-.11,1.98Zm-3.52-3.25c-.17-6.93-4.4-10.01-8.8-10.01-5.01,0-9.46,3.85-10.12,10.01h18.92Z" fill="#fff"/><path d="M435.16,60.16h2.97l.44,4.79h.05c2.04-3.91,5.94-5.12,8.58-5.12,.72,0,1.32,.05,1.87,.11v3.63c-.61-.11-1.27-.17-1.93-.17-4.07,0-8.25,2.7-8.25,8.58v17.66h-3.74v-29.48Z" fill="#fff"/><path d="M455.02,60.16h2.97l.5,5.78c2.37-4.35,6.6-6.38,10.78-6.38,7.04,0,13.53,5.94,13.53,15.29s-6.49,15.4-13.53,15.4c-4.13,0-8.47-2.2-10.51-6.05v17h-3.74V60.16Zm24.04,14.69c0-6.99-4.51-11.72-10.23-11.72s-10.18,4.79-10.18,11.77,4.51,11.77,10.18,11.77,10.23-4.68,10.23-11.83Z" fill="#fff"/><path d="M490.77,60.16h2.97l.44,4.79h.05c2.04-3.91,5.94-5.12,8.58-5.12,.72,0,1.32,.05,1.87,.11v3.63c-.61-.11-1.27-.17-1.93-.17-4.07,0-8.25,2.7-8.25,8.58v17.66h-3.74v-29.48Z" fill="#fff"/><path d="M510.08,49.87c0-1.43,1.04-2.48,2.53-2.48s2.59,1.04,2.59,2.48-1.04,2.53-2.59,2.53-2.53-1.04-2.53-2.53Zm.66,10.29h3.74v29.48h-3.74v-29.48Z" fill="#fff"/><path d="M541.93,62.14v4.13c-2.09-1.87-5.23-3.19-8.75-3.19-4.07,0-6.38,1.87-6.38,4.57,0,3.08,2.81,4.07,7.04,5.39,4.4,1.38,9.57,2.75,9.57,8.64,0,5.23-4.07,8.58-10.51,8.58-3.63,0-7.26-1.1-10.07-3.47v-4.46c2.26,2.42,5.78,4.4,10.01,4.4s6.88-2.09,6.88-5.01c0-3.3-3.03-4.35-7.43-5.72-4.95-1.54-9.24-2.97-9.24-8.09,0-4.84,3.96-8.36,10.18-8.36,3.3,0,6.66,.99,8.69,2.58Z" fill="#fff"/><path d="M575.43,76.27h-22.5c.61,6.44,4.79,10.45,10.84,10.45,3.41,0,6.99-1.27,10.18-4.18v4.18c-3.03,2.37-6.49,3.52-10.34,3.52-8.75,0-14.41-6.05-14.41-15.24s6.6-15.46,13.97-15.46c6.82,0,12.38,5.06,12.38,14.74,0,.77-.05,1.38-.11,1.98Zm-3.52-3.25c-.17-6.93-4.4-10.01-8.8-10.01-5.01,0-9.46,3.85-10.12,10.01h18.92Z" fill="#fff"/></g><g><path d="M3.76,102.85l19.5,.08c1.53,0,2.78-1.23,2.78-2.76l.31-71.85c0-2.18-2.39-3.52-4.24-2.36L2.55,38.24c-.8,.5-1.29,1.39-1.3,2.33l-.26,59.49c0,1.53,1.23,2.78,2.76,2.78Z" fill="url(#b)"/><path d="M100.05,25.15l-19.5-.08c-1.53,0-2.78,1.23-2.78,2.76l-.31,71.85c0,2.18,2.39,3.52,4.24,2.36l19.56-12.28c.8-.5,1.29-1.39,1.3-2.33l.26-59.49c0-1.53-1.23-2.78-2.76-2.78Z" fill="url(#c)"/><path d="M39.13,15.31c-.81,.51-1.3,1.39-1.3,2.34V124.56c0,2.18,2.4,3.5,4.25,2.34l22.6-14.19c.81-.51,1.3-1.39,1.3-2.35V3.44c0-2.18-2.4-3.51-4.24-2.35l-22.61,14.21Z" fill="url(#d)"/></g></svg>