<?xml version="1.0" encoding="UTF-8"?><svg id="a" xmlns="http://www.w3.org/2000/svg" width="578" height="136" xmlns:xlink="http://www.w3.org/1999/xlink" viewBox="0 0 578 136"><defs><linearGradient id="b" x1="57.82" y1="35.79" x2="24.47" y2="107.3" gradientTransform="translate(-18.79 -2.41) rotate(.25)" gradientUnits="userSpaceOnUse"><stop offset=".14" stop-color="#3d3d8d"/><stop offset=".5" stop-color="#4d4ec3"/><stop offset=".83" stop-color="#5a5bee"/><stop offset="1" stop-color="#5f61ff"/></linearGradient><linearGradient id="c" x1="705.61" y1="4286.95" x2="738.67" y2="4215.24" gradientTransform="translate(797.57 4320.89) rotate(-179.75)" xlink:href="#b"/><linearGradient id="d" x1="103.36" y1="13.56" x2="50.65" y2="126.6" xlink:href="#b"/></defs><g><path d="m9.76,106.85l19.5.08c1.53,0,2.78-1.23,2.78-2.76l.31-71.85c0-2.18-2.39-3.52-4.24-2.36l-19.56,12.28c-.8.5-1.29,1.39-1.3,2.33l-.26,59.49c0,1.53,1.23,2.78,2.76,2.78Z" fill="url(#b)"/><path d="m106.05,29.15l-19.5-.08c-1.53,0-2.78,1.23-2.78,2.76l-.31,71.85c0,2.18,2.39,3.52,4.24,2.36l19.56-12.28c.8-.5,1.29-1.39,1.3-2.33l.26-59.49c0-1.53-1.23-2.78-2.76-2.78Z" fill="url(#c)"/><path d="m45.13,19.31c-.81.51-1.3,1.39-1.3,2.34v106.91c0,2.18,2.4,3.5,4.25,2.34l22.6-14.19c.81-.51,1.3-1.39,1.3-2.35V7.44c0-2.18-2.4-3.51-4.24-2.35l-22.61,14.21Z" fill="url(#d)"/></g><g><path d="m144.58,35.06h-1.1v5.41h-2.02v-13.2h2.02v6.12h1.01l5.3-6.12h2.29v.24l-6.07,6.58,6.36,6.14v.24h-2.35l-5.43-5.41Z" fill="#1a1a1a"/><path d="m152.06,35.42c0-3.43,2-5.48,5.1-5.48s4.62,1.89,4.62,4.73c0,.31-.02.77-.07,1.23h-7.75c.15,2.09,1.25,3.23,3.23,3.23,1.85,0,2.49-.92,2.82-2.07l1.67.46c-.51,1.96-1.83,3.19-4.49,3.19-3.19,0-5.15-1.89-5.15-5.3Zm1.94-.9h6.01c-.09-1.96-.99-3.06-2.88-3.06s-2.9,1.01-3.12,3.06Z" fill="#1a1a1a"/><path d="m162.62,44.13l.31-1.76c.46.09.88.15,1.32.15,1.21,0,1.89-.31,2.71-2.13l-4.36-10.19h2.11l1.32,3.67c.48,1.34,1.21,3.3,1.74,4.91h.33c.55-1.65,1.21-3.54,1.65-4.88l1.25-3.7h2.05l-4.36,10.41c-1.08,2.55-2.33,3.65-4.51,3.65-.64,0-1.1-.07-1.56-.13Z" fill="#1a1a1a"/><path d="m177.27,30.2h3.12v1.58h-3.12v8.69h-1.91v-8.69h-1.85v-1.58h1.85v-.66c0-2.09,1.12-3.48,3.41-3.48.77,0,1.3.09,1.72.18l-.09,1.43c-.48-.07-.9-.13-1.34-.13-1.25,0-1.78.7-1.78,2.05v.62Z" fill="#1a1a1a"/><path d="m188.03,38.03h-.2c-.51,1.69-1.83,2.66-3.65,2.66-1.94,0-3.19-.88-3.19-2.86,0-1.78,1.14-3.08,3.65-3.08h3.3v-.84c0-1.54-.59-2.38-2.27-2.38-1.39,0-2.16.68-2.49,2.05l-1.8-.44c.42-1.98,1.89-3.19,4.36-3.19,2.86,0,4.12,1.39,4.12,3.94v6.58h-1.83v-2.44Zm-.09-1.39v-.57h-3.01c-1.34,0-2.11.53-2.11,1.54,0,.81.51,1.54,2.02,1.54,1.89,0,3.1-1.06,3.1-2.51Z" fill="#1a1a1a"/><path d="m196.9,31.63c-1.94,0-3.12,1.25-3.12,3.72,0,2.27,1.12,3.7,3.21,3.7,1.89,0,2.51-1.14,2.88-2.53l1.76.46c-.46,2.35-1.87,3.76-4.62,3.76-3.23,0-5.19-1.96-5.19-5.37s2.05-5.44,5.13-5.44c2.88,0,4.22,1.36,4.64,3.78l-1.78.37c-.35-1.52-1.06-2.46-2.9-2.46Z" fill="#1a1a1a"/><path d="m204.35,31.78h-1.56v-1.58h1.56v-2.88h1.91v2.88h3.28v1.58h-3.28v5.41c0,1.17.44,1.76,1.58,1.76.55,0,1.01-.11,1.56-.26l.24,1.69c-.7.22-1.25.35-2.2.35-2.16,0-3.1-1.41-3.1-3.32v-5.63Z" fill="#1a1a1a"/><path d="m210.82,35.31c0-3.37,2.02-5.37,5.15-5.37s5.15,2,5.15,5.37-1.89,5.44-5.15,5.44-5.15-2.09-5.15-5.44Zm1.91-.02c0,2.31,1.03,3.78,3.21,3.78s3.26-1.47,3.26-3.78-1.12-3.7-3.23-3.7-3.23,1.39-3.23,3.7Z" fill="#1a1a1a"/><path d="m223.16,40.48v-10.28h1.85v2.9l.15.02c.53-2.24,1.58-3.04,3.17-3.04h.4v2.11h-.53c-2.22,0-3.12.88-3.12,3.19v5.08h-1.92Z" fill="#1a1a1a"/></g><g><path d="m141.45,53.6h25.85v5.02h-20.15v10.79h18.1v4.96h-18.1v11.41h20.09v5.02h-25.79v-37.2Z" fill="#1a1a1a"/><path d="m179.64,53.6h5.7v27.28c0,6.39-2.79,10.42-9.49,10.42-1.74,0-3.16-.19-4.71-.43l.31-4.96c1.3.25,2.29.37,3.6.37,3.29,0,4.59-1.98,4.59-5.33v-27.34Z" fill="#1a1a1a"/><path d="m193.65,53.6h15.13c8.49,0,12.4,3.22,12.4,9.49,0,4.77-2.73,7.56-7.32,8.68v.56c6.26.68,9.11,3.22,9.11,8.43,0,5.89-3.72,10.04-12.9,10.04h-16.43v-37.2Zm5.7,4.53v12.03h9.24c4.22,0,7.07-1.67,7.07-6.2,0-3.91-1.92-5.83-6.7-5.83h-9.61Zm0,16.24v11.96h10.54c5.15,0,7.44-2.42,7.44-6.01,0-3.78-1.98-5.95-7.75-5.95h-10.23Z" fill="#1a1a1a"/><path d="m226.7,72.13c0-11.84,6.7-19.28,17.86-19.28,9.49,0,15.25,5.27,16.62,14.01l-5.39,1.05c-1.3-6.45-4.84-10.04-11.28-10.04-8.31,0-12.09,5.83-12.09,14.26,0,8.87,3.78,14.45,11.97,14.45,6.94,0,10.29-3.72,11.59-10.35l5.39.99c-1.3,8.87-7.13,14.32-16.99,14.32-11.35,0-17.67-7.56-17.67-19.41Z" fill="#1a1a1a"/><path d="m287.27,80.38h-16.8l-3.78,10.42h-5.95l14.45-37.2h7.56l14.38,37.2h-6.08l-3.78-10.42Zm-15.25-4.34h13.64l-1.67-4.59c-1.55-4.15-3.16-8.93-4.34-12.83h-1.55c-1.24,3.97-2.85,8.68-4.4,12.83l-1.67,4.59Z" fill="#1a1a1a"/><path d="m314.8,53.6h23.74v2.42h-21.14v14.51h18.66v2.42h-18.66v15.44h21.08v2.42h-23.68v-37.2Z" fill="#1a1a1a"/><path d="m349.21,90.79h-2.48v-28.58h2.48v7.25h.43c1.49-4.65,5.58-7.87,11.04-7.87,7.25,0,10.23,4.53,10.23,10.79v18.41h-2.48v-18.1c0-4.9-1.92-8.74-8-8.74-6.63,0-11.22,3.97-11.22,10.1v16.74Z" fill="#1a1a1a"/><path d="m381.45,64.57h-5.21v-2.36h5.21v-8.62h2.48v8.62h10.6v2.36h-10.6v18.29c0,4.09,1.61,6.26,5.46,6.26,1.8,0,2.98-.19,4.96-.74l.43,2.17c-1.8.56-3.41.87-5.52.87-5.33,0-7.81-3.47-7.81-8.68v-18.17Z" fill="#1a1a1a"/><path d="m398.25,76.35c0-9.24,5.7-14.75,13.76-14.75s12.65,5.27,12.65,13.21c0,.37,0,1.49-.06,2.29h-23.81c.19,7.32,4.22,11.97,11.41,11.97,6.45,0,8.74-3.47,9.98-7.81l2.36.81c-1.49,6.01-5.52,9.36-12.28,9.36-8.99,0-14.01-5.83-14.01-15.07Zm2.6-1.49h21.45c-.25-6.88-3.29-10.97-10.35-10.97-6.51,0-10.54,3.84-11.1,10.97Z" fill="#1a1a1a"/><path d="m431.67,90.79v-28.58h2.48v6.94h.31c1.3-4.59,4.65-7.25,9.61-7.25h1.3v2.48h-1.24c-6.57,0-9.98,3.22-9.98,10.85v15.56h-2.48Z" fill="#1a1a1a"/><path d="m465.33,91.41c-6.26.06-10.17-3.66-11.53-8.56h-.25v17.48h-2.48v-38.13h2.48v7.87h.31c1.36-4.77,4.71-8.49,11.1-8.49,8,0,12.28,5.33,12.28,14.94s-4.46,14.94-11.9,14.88Zm9.36-14.94c0-8.55-3.29-12.52-10.17-12.52s-10.97,4.4-10.97,11.47v2.17c0,6.82,4.34,11.59,10.97,11.59s10.17-4.22,10.17-12.71Z" fill="#1a1a1a"/><path d="m484.24,90.79v-28.58h2.48v6.94h.31c1.3-4.59,4.65-7.25,9.61-7.25h1.3v2.48h-1.24c-6.57,0-9.98,3.22-9.98,10.85v15.56h-2.48Z" fill="#1a1a1a"/><path d="m503.9,55.21v-3.66h3.72v3.66h-3.72Zm.62,35.59v-28.58h2.48v28.58h-2.48Z" fill="#1a1a1a"/><path d="m514.44,81.68l2.42-.5c1.12,4.22,3.41,7.87,10.54,7.87,5.27,0,7.94-2.11,7.94-5.77s-2.6-4.96-9.3-5.95c-7.01-1.05-9.79-3.72-9.79-7.94,0-4.53,3.35-7.81,9.86-7.81s9.36,3.22,10.85,8.43l-2.48.62c-1.24-4.96-3.91-6.7-8.37-6.7-4.84,0-7.38,1.98-7.38,5.33,0,2.98,2.23,4.96,8.31,5.83,7.44,1.05,10.85,3.53,10.85,8.18s-3.1,8.18-10.48,8.18c-8.06,0-11.47-3.66-12.96-9.8Z" fill="#1a1a1a"/><path d="m542.52,76.35c0-9.24,5.7-14.75,13.76-14.75s12.65,5.27,12.65,13.21c0,.37,0,1.49-.06,2.29h-23.81c.19,7.32,4.22,11.97,11.41,11.97,6.45,0,8.74-3.47,9.98-7.81l2.36.81c-1.49,6.01-5.52,9.36-12.28,9.36-8.99,0-14.01-5.83-14.01-15.07Zm2.6-1.49h21.45c-.25-6.88-3.29-10.97-10.35-10.97-6.51,0-10.54,3.84-11.1,10.97Z" fill="#1a1a1a"/></g></svg>